<?xml version="1.0" encoding="UTF-8"?>
<svg id="Capa_1" xmlns="http://www.w3.org/2000/svg" xmlns:xlink="http://www.w3.org/1999/xlink" viewBox="0 0 327.37 63.6">
  <defs>
    <style>
      .cls-1 {
        fill: url(#linear-gradient-2);
      }

      .cls-2 {
        fill: #122a33;
      }

      .cls-3 {
        fill: url(#linear-gradient-4);
      }

      .cls-4 {
        fill: url(#linear-gradient-3);
      }

      .cls-5 {
        fill: #0e2b34;
      }

      .cls-6 {
        fill: url(#linear-gradient);
      }
    </style>
    <linearGradient id="linear-gradient" x1="72.35" y1="23.41" x2="95.21" y2="23.41" gradientUnits="userSpaceOnUse">
      <stop offset=".02" stop-color="#bb2934"/>
      <stop offset="1" stop-color="#e1313c"/>
    </linearGradient>
    <linearGradient id="linear-gradient-2" x1="97.15" y1="24.52" x2="162.45" y2="24.52" xlink:href="#linear-gradient"/>
    <linearGradient id="linear-gradient-3" x1="97.15" y1="31.42" x2="162.45" y2="31.42" xlink:href="#linear-gradient"/>
    <linearGradient id="linear-gradient-4" x1="97.15" y1="38.31" x2="162.45" y2="38.31" xlink:href="#linear-gradient"/>
  </defs>
  <rect class="cls-5" x="166.21" y="5.87" width="2.59" height="51.86" rx="1.03" ry="1.03"/>
  <path class="cls-5" d="M41.06,32.88c-1.14,0-2.22.23-3.21.64l-3.38-6.14v-1.78h4.16c.53,0,.96-.43.96-.96s-.43-.96-.96-.96h-6.08v2.99h-11.36c.26-.18.44-.46.44-.8v-.8c0-.54-.44-.98-.98-.98h-3.29c-.54,0-.98.44-.98.98v.8c0,.54.44.98.98.98h1l-2.89,6.43c-.81-.26-1.67-.4-2.56-.4-4.66,0-8.44,3.79-8.44,8.44s3.79,8.44,8.44,8.44c4.34,0,7.92-3.29,8.39-7.51l6.89-.02,5.41-12.43,2.56,4.65c-2.15,1.53-3.55,4.04-3.55,6.87,0,4.66,3.79,8.44,8.44,8.44s8.44-3.79,8.44-8.44-3.79-8.44-8.44-8.44ZM41.06,47.85c-3.6,0-6.53-2.93-6.53-6.52,0-2.11,1.01-3.98,2.57-5.18l3.31,6.01c.17.31.49.5.84.5.16,0,.32-.04.46-.12.22-.12.39-.33.46-.57.07-.25.04-.51-.08-.73l-3.31-6.02c.71-.27,1.48-.42,2.28-.42,3.6,0,6.53,2.93,6.53,6.53s-2.93,6.52-6.53,6.52ZM19.37,40.35l-4.96.02,2.03-4.53c1.55.99,2.64,2.62,2.93,4.51ZM11.44,42.29l7.93-.03c-.46,3.15-3.17,5.59-6.45,5.59-3.6,0-6.53-2.93-6.53-6.52s2.93-6.53,6.53-6.53c.61,0,1.2.09,1.77.25l-3.25,7.24ZM17.23,34.08l2.46-5.48h12.35l-5.1,11.73-5.64.02c-.31-2.67-1.87-4.95-4.07-6.26Z"/>
  <g>
    <path class="cls-5" d="M195.26,32.78l-1.12-3.47h-7.21l-1.15,3.47h-6.27l7.69-20.91h6.8l7.71,20.91h-6.45ZM188.43,24.68h4.18l-2.09-6.42-2.09,6.42Z"/>
    <path class="cls-5" d="M202.51,32.78v-4.42l8.42-11.54h-7.89v-4.95h15.22v4.48l-8.3,11.48h8.72v4.95h-16.17Z"/>
    <path class="cls-5" d="M219.76,22.56v-.47c0-6.04,4.12-10.6,10.75-10.6s10.78,4.56,10.78,10.6v.47c0,6.04-4.12,10.6-10.78,10.6s-10.75-4.56-10.75-10.6ZM234.84,22.56v-.47c0-3.47-1.47-5.6-4.33-5.6s-4.3,2.12-4.3,5.6v.47c0,3.47,1.5,5.59,4.3,5.59s4.33-2.12,4.33-5.59Z"/>
    <path class="cls-5" d="M242.71,22.56v-.47c0-6.15,4.15-10.6,10.72-10.6,5.65,0,9.04,3.3,9.6,7.54h-6.24c-.38-1.44-1.38-2.53-3.45-2.53-2.8,0-4.18,2.21-4.18,5.6v.47c0,3.42,1.38,5.59,4.53,5.59,2.86,0,4.01-1.47,4.3-3.09h-4.77v-4.27h9.95v11.98h-4.39l-.47-2.53c-1.03,1.65-3.03,2.92-6.04,2.92-6.1,0-9.57-4.3-9.57-10.6Z"/>
    <path class="cls-5" d="M265.44,24.38v-12.51h6.18v12.46c0,2.27.77,3.71,3.21,3.71s3.21-1.33,3.21-3.74v-12.43h6.15v12.51c0,5.77-3.15,8.78-9.39,8.78s-9.36-3-9.36-8.78Z"/>
    <path class="cls-5" d="M286.62,32.78V11.87h16.23v4.95h-10.16v2.97h8.83v4.74h-8.83v3.3h10.45v4.95h-16.52Z"/>
    <path class="cls-5" d="M304.08,25.8h6.1c.29,1.65,1.47,2.65,3.59,2.65,1.77,0,2.74-.71,2.74-1.53v-.18c0-1.03-.62-1.41-4.33-2.06-4.92-.85-7.42-2.62-7.42-6.39v-.29c0-4.12,3.86-6.51,8.63-6.51,5.24,0,8.63,2.5,8.95,7.01h-6.07c-.15-1.62-1.18-2.36-2.97-2.36-1.62,0-2.39.74-2.39,1.53v.15c0,.94.53,1.35,4.18,1.88,4.42.65,7.6,2.41,7.6,6.33v.29c0,4.39-3.98,6.83-9.01,6.83-5.95,0-9.28-2.83-9.6-7.36Z"/>
    <path class="cls-5" d="M180.81,54.37v-15.33h5.01c4.38,0,7.41,2.59,7.41,7.36v.61c0,4.73-2.98,7.36-7.41,7.36h-5.01ZM182.64,52.77h3.02c3.48,0,5.66-1.84,5.66-5.77v-.61c0-3.89-2.16-5.77-5.7-5.77h-2.98v12.14Z"/>
    <path class="cls-5" d="M195.77,54.37v-15.33h10.08v1.6h-8.25v5.1h7.6v1.6h-7.6v5.44h8.36v1.6h-10.19Z"/>
    <path class="cls-5" d="M208.67,54.37v-15.33h1.84v13.73h6.76v1.6h-8.59Z"/>
    <path class="cls-5" d="M224.19,54.37v-16.73h12.46v3.96h-7.56v2.85h6.53v3.96h-6.53v5.96h-4.9Z"/>
    <path class="cls-5" d="M238.73,47.66v-10.01h4.95v9.97c0,1.81.61,2.97,2.57,2.97s2.57-1.06,2.57-2.99v-9.94h4.92v10.01c0,4.62-2.52,7.02-7.52,7.02s-7.49-2.4-7.49-7.02Z"/>
    <path class="cls-5" d="M260.26,54.37v-12.77h-4.36v-3.96h13.64v3.96h-4.34v12.77h-4.95Z"/>
    <path class="cls-5" d="M271.74,47.66v-10.01h4.95v9.97c0,1.81.61,2.97,2.57,2.97s2.57-1.06,2.57-2.99v-9.94h4.92v10.01c0,4.62-2.52,7.02-7.52,7.02s-7.49-2.4-7.49-7.02Z"/>
    <path class="cls-5" d="M289.38,54.37v-16.73h8.11c3.68,0,6.5,2,6.5,5.75v.14c0,2.52-1.2,4.22-3.11,5.09l3.46,5.75h-5.28l-2.87-5.09h-1.91v5.09h-4.9ZM294.28,45.33h2.59c1.2,0,2.03-.52,2.03-1.79v-.14c0-1.27-.83-1.79-2.03-1.79h-2.59v3.72Z"/>
    <path class="cls-5" d="M305.66,46.2v-.38c0-4.83,3.3-8.48,8.6-8.48s8.62,3.65,8.62,8.48v.38c0,4.83-3.3,8.48-8.62,8.48s-8.6-3.65-8.6-8.48ZM317.73,46.2v-.38c0-2.78-1.18-4.48-3.46-4.48s-3.44,1.7-3.44,4.48v.38c0,2.78,1.2,4.48,3.44,4.48s3.46-1.7,3.46-4.48Z"/>
  </g>
  <g id="VPFiao.tif">
    <g>
      <path class="cls-6" d="M83.75,6.95h.27c3.72,4.55,7.45,9.09,11.2,13.62l-.07,19.25q-4.99-.03-9.99-.07v-6.84c.89-1.53,4.5-5.69,4.83-6.3.6-1.13-.05-1.54-.74-1.14-.28.16-3.7,5.33-4.02,5.1-.26-1.34.12-6.09-.07-6.64-.14-.42-1.02-.56-1.21.13-.2.77.15,8.86,0,11-.15.2-.41-.11-.67-.4-.58-.64-3.22-4.66-3.69-4.76-.39-.08-.88.27-.74.87.1.4,4.98,6.17,5.1,6.57.1.37-.08,1.73,0,2.41-1.39-.09-11.08.36-11.53,0-.1-.08-.06-.98,0-1.07.2-.3,3.58-1.73,5.1-4.96,2.73-5.84-1.86-9.8-3.49-15.02q4.86-5.87,9.72-11.74Z"/>
      <path class="cls-2" d="M64.17,10.3c6.24-.41,7.61,6.14,9.72,10.66.67,1.44,2.63,4.73,2.95,5.63,1.37,3.82.45,7.23-2.61,9.86-2.46,2.11-8.03,3.88-8.85,3.35-.09-.06-.11-1-.07-1.14.14-.51,4.98-6.17,5.1-6.57.02-.08.02-.61,0-.67-.59-1.64-4.39,4.96-4.76,5.03-.12.03-.3-.11-.34-.2-.22-.58.23-10.11,0-11-.17-.67-.94-.54-1.07-.13-.23.7.32,6.64-.2,6.77-.83-.62-3.89-5.28-4.29-5.37-.36-.08-.84.44-.74.87.1.42,4.73,5.8,5.23,6.84q-.03,2.78-.07,5.57c-5.11-.13-11.95-3.7-12.14-9.46-.11-3.5,1.86-5.64,3.22-8.59,1.91-4.14,3.57-11.12,8.92-11.47Z"/>
      <path class="cls-2" d="M64.04,40.75c.07-.05,1.55-.09,1.68.2-.32,2.96.91,8.99-1.27,8.38-.03,0-.46-.44-.47-.47-.12-.39-.27-7.9.07-8.12Z"/>
      <path class="cls-2" d="M83.75,40.75c.07-.05,1.62-.02,1.68.07.18.28.1,6.39,0,6.71-.2.66-1.5.83-1.74-.13-.08-.32-.21-6.46.07-6.64Z"/>
    </g>
  </g>
  <path class="cls-1" d="M158.3,23.63c-1.72-1.25-3.5-2.54-5.46-2.54-1.96,0-3.74,1.29-5.46,2.54-1.43,1.04-2.91,2.12-4.15,2.12s-2.72-1.08-4.15-2.12c-1.72-1.25-3.49-2.54-5.46-2.54-1.96,0-3.74,1.29-5.46,2.54-1.43,1.04-2.91,2.12-4.15,2.12s-2.72-1.08-4.15-2.12c-1.72-1.25-3.49-2.54-5.46-2.54-1.96,0-3.74,1.29-5.46,2.54-1.43,1.04-2.91,2.12-4.15,2.12s-2.72-1.08-4.15-2.12c-1.13-.82-2.28-1.65-3.49-2.13v2.45c.72.4,1.46.94,2.19,1.47,1.72,1.25,3.49,2.54,5.46,2.54s3.74-1.29,5.46-2.54c1.43-1.04,2.91-2.12,4.15-2.12s2.72,1.08,4.15,2.12c1.72,1.25,3.49,2.54,5.46,2.54,1.96,0,3.74-1.29,5.46-2.54,1.43-1.04,2.91-2.12,4.15-2.12s2.72,1.08,4.15,2.12c1.72,1.25,3.49,2.54,5.46,2.54,1.96,0,3.74-1.29,5.46-2.54,1.43-1.04,2.91-2.12,4.15-2.12s2.72,1.08,4.16,2.12c1.72,1.25,3.49,2.54,5.46,2.54v-2.21c-1.24,0-2.72-1.08-4.15-2.12Z"/>
  <path class="cls-4" d="M158.3,30.52c-1.72-1.25-3.5-2.54-5.46-2.54s-3.74,1.29-5.46,2.54c-1.43,1.04-2.91,2.12-4.15,2.12s-2.72-1.08-4.15-2.12c-1.72-1.25-3.49-2.54-5.46-2.54-1.96,0-3.74,1.29-5.46,2.54-1.43,1.04-2.91,2.12-4.15,2.12s-2.72-1.08-4.15-2.12c-1.72-1.25-3.49-2.54-5.46-2.54-1.96,0-3.74,1.29-5.46,2.54-1.43,1.04-2.91,2.12-4.15,2.12s-2.72-1.08-4.15-2.12c-1.13-.82-2.28-1.65-3.49-2.13v2.45c.72.4,1.46.94,2.19,1.47,1.72,1.25,3.49,2.54,5.46,2.54s3.74-1.29,5.46-2.54c1.43-1.04,2.91-2.12,4.15-2.12s2.72,1.08,4.15,2.12c1.72,1.25,3.49,2.54,5.46,2.54,1.96,0,3.74-1.29,5.46-2.54,1.43-1.04,2.91-2.12,4.15-2.12s2.72,1.08,4.15,2.12c1.72,1.25,3.49,2.54,5.46,2.54,1.96,0,3.74-1.29,5.46-2.54,1.43-1.04,2.91-2.12,4.15-2.12s2.72,1.08,4.16,2.12c1.72,1.25,3.49,2.54,5.46,2.54v-2.21c-1.24,0-2.72-1.08-4.15-2.12Z"/>
  <path class="cls-3" d="M158.3,37.41c-1.72-1.25-3.5-2.54-5.46-2.54s-3.74,1.29-5.46,2.54c-1.43,1.04-2.91,2.12-4.15,2.12s-2.72-1.08-4.15-2.12c-1.72-1.25-3.49-2.54-5.46-2.54-1.96,0-3.74,1.29-5.46,2.54-1.43,1.04-2.91,2.12-4.15,2.12s-2.72-1.08-4.15-2.12c-1.72-1.25-3.49-2.54-5.46-2.54-1.96,0-3.74,1.29-5.46,2.54-1.43,1.04-2.91,2.12-4.15,2.12s-2.72-1.08-4.15-2.12c-1.13-.82-2.28-1.65-3.49-2.13v2.45c.72.4,1.46.94,2.19,1.47,1.72,1.25,3.49,2.54,5.46,2.54s3.74-1.29,5.46-2.54c1.43-1.04,2.91-2.12,4.15-2.12s2.72,1.08,4.15,2.12c1.72,1.25,3.49,2.54,5.46,2.54s3.74-1.29,5.46-2.54c1.43-1.04,2.91-2.12,4.15-2.12s2.72,1.08,4.15,2.12c1.72,1.25,3.49,2.54,5.46,2.54,1.96,0,3.74-1.29,5.46-2.54,1.43-1.04,2.91-2.12,4.15-2.12s2.72,1.08,4.16,2.12c1.72,1.25,3.49,2.54,5.46,2.54v-2.21c-1.24,0-2.72-1.08-4.15-2.12Z"/>
</svg>