<?xml version="1.0" encoding="UTF-8"?>
<svg id="Capa_1" xmlns="http://www.w3.org/2000/svg" xmlns:xlink="http://www.w3.org/1999/xlink" viewBox="0 0 265.99 75.75">
  <defs>
    <style>
      .cls-1 {
        fill: #fbd900;
      }

      .cls-2 {
        stroke-width: .06px;
      }

      .cls-2, .cls-3 {
        fill: none;
      }

      .cls-2, .cls-3, .cls-4, .cls-5, .cls-6, .cls-7, .cls-8, .cls-9 {
        stroke-miterlimit: 10;
      }

      .cls-2, .cls-3, .cls-4, .cls-5, .cls-6, .cls-8, .cls-9 {
        stroke: #000;
      }

      .cls-10 {
        fill: url(#linear-gradient-2);
      }

      .cls-11 {
        fill: url(#linear-gradient-10);
      }

      .cls-12 {
        fill: #12783d;
      }

      .cls-3, .cls-4, .cls-6, .cls-8, .cls-9 {
        stroke-width: .07px;
      }

      .cls-13 {
        fill: #0b9949;
      }

      .cls-4 {
        fill: #976939;
      }

      .cls-14 {
        fill: url(#linear-gradient-4);
      }

      .cls-15 {
        fill: url(#linear-gradient-3);
      }

      .cls-16 {
        fill: #5dc0e6;
      }

      .cls-17 {
        fill: url(#linear-gradient-5);
      }

      .cls-18 {
        fill: url(#linear-gradient-8);
      }

      .cls-19 {
        fill: url(#linear-gradient-7);
      }

      .cls-20 {
        fill: url(#linear-gradient-9);
      }

      .cls-21 {
        fill: #754128;
      }

      .cls-22 {
        fill: url(#linear-gradient-6);
      }

      .cls-5 {
        stroke-width: .14px;
      }

      .cls-5, .cls-9 {
        fill: #fff;
      }

      .cls-6 {
        fill: #cca262;
      }

      .cls-7 {
        fill: #ed1c24;
        stroke: #ed1c24;
        stroke-width: .18px;
      }

      .cls-23 {
        fill: #151c2e;
      }

      .cls-8 {
        fill: #f6dad6;
      }

      .cls-24 {
        fill: #10192b;
      }

      .cls-25 {
        fill: url(#linear-gradient);
      }

      .cls-26 {
        fill: #06a14a;
      }
    </style>
    <linearGradient id="linear-gradient" x1="1508.76" y1="827.84" x2="1509.51" y2="827.84" gradientTransform="translate(-1359.53 -974.59) rotate(6.86)" gradientUnits="userSpaceOnUse">
      <stop offset="0" stop-color="#ec1d32"/>
      <stop offset=".42" stop-color="#ec1e24"/>
      <stop offset=".78" stop-color="#ea1d25"/>
      <stop offset="1" stop-color="#ec1e24"/>
    </linearGradient>
    <linearGradient id="linear-gradient-2" x1="1510.6" y1="828.41" x2="1511.34" y2="828.41" xlink:href="#linear-gradient"/>
    <linearGradient id="linear-gradient-3" x1="1506.85" y1="833.1" x2="1507.6" y2="833.1" xlink:href="#linear-gradient"/>
    <linearGradient id="linear-gradient-4" x1="1508.93" y1="833.13" x2="1509.67" y2="833.13" xlink:href="#linear-gradient"/>
    <linearGradient id="linear-gradient-5" x1="1508.61" y1="838.79" x2="1509.35" y2="838.79" xlink:href="#linear-gradient"/>
    <linearGradient id="linear-gradient-6" x1="1510.52" y1="838.03" x2="1511.26" y2="838.03" xlink:href="#linear-gradient"/>
    <linearGradient id="linear-gradient-7" x1="1512.04" y1="842.83" x2="1512.78" y2="842.83" xlink:href="#linear-gradient"/>
    <linearGradient id="linear-gradient-8" x1="1513.6" y1="841.53" x2="1514.34" y2="841.53" xlink:href="#linear-gradient"/>
    <linearGradient id="linear-gradient-9" x1="1512.51" y1="823.3" x2="1513.25" y2="823.3" xlink:href="#linear-gradient"/>
    <linearGradient id="linear-gradient-10" x1="1514" y1="824.58" x2="1514.74" y2="824.58" xlink:href="#linear-gradient"/>
  </defs>
  <g>
    <path class="cls-24" d="M90.78,59.69l-1.17-3.02h-7l-1.17,3.02h-4.39l6.95-16.59h4.19l6.95,16.59h-4.37ZM86.11,47.71l-2.11,5.45h4.24l-2.13-5.45Z"/>
    <path class="cls-24" d="M108.88,59.69h-12.29v-16.59h4.1v13.03h8.19v3.57Z"/>
    <path class="cls-24" d="M127.32,53.48c-.77,4.16-4.12,6.59-8.39,6.59-4.94,0-8.84-3.79-8.84-8.67s3.9-8.67,8.84-8.67c4.1,0,7.57,2.43,8.37,6.36l-4.02.94c-.52-2.4-2.21-3.57-4.34-3.57-2.63,0-4.74,2.1-4.74,4.93s2.11,4.95,4.74,4.95c2.11,0,3.8-1.19,4.37-3.66l4.02.79Z"/>
    <path class="cls-24" d="M141.28,59.69l-1.17-3.02h-7l-1.17,3.02h-4.39l6.95-16.59h4.19l6.95,16.59h-4.37ZM136.61,47.71l-2.11,5.45h4.24l-2.13-5.45Z"/>
    <path class="cls-24" d="M159.37,59.69h-12.29v-16.59h4.1v13.03h8.19v3.57Z"/>
    <path class="cls-24" d="M168.24,43.1c5.49,0,9.11,3.37,9.11,8.3s-3.62,8.3-9.11,8.3h-6.58v-16.59h6.58ZM168.09,56.15c3.1,0,5.14-1.88,5.14-4.75s-2.04-4.75-5.14-4.75h-2.33v9.51h2.33Z"/>
    <path class="cls-24" d="M179.66,59.69v-16.59h4.1v16.59h-4.1ZM179.98,41.49l1.76-3.76h4.72l-2.95,3.76h-3.52Z"/>
    <path class="cls-24" d="M198.92,59.69l-1.17-3.02h-7l-1.17,3.02h-4.39l6.95-16.59h4.19l6.95,16.59h-4.37ZM194.25,47.71l-2.11,5.45h4.24l-2.13-5.45Z"/>
  </g>
  <g>
    <path class="cls-24" d="M98.64,35.36l-1.47-4.03h-10.45l-1.5,4.03h-8.16l10.69-26.47h8.4l10.69,26.47h-8.2ZM91.98,17.03l-2.93,7.94h5.82l-2.89-7.94Z"/>
    <path class="cls-24" d="M130.28,35.36h-22.81v-4.9l12.59-15.17h-12.28v-6.4h22.06v5.89l-11.44,14.18h11.88v6.4Z"/>
    <path class="cls-24" d="M159.74,22.13c0,7.74-6.26,13.83-14.3,13.83s-14.3-6.08-14.3-13.83,6.26-13.83,14.3-13.83,14.3,6.12,14.3,13.83ZM152.06,22.13c0-3.95-2.77-6.99-6.61-6.99s-6.61,3.04-6.61,6.99,2.77,6.99,6.61,6.99,6.61-3,6.61-6.99Z"/>
    <path class="cls-24" d="M189.68,19.56c.08,1.07.16,1.82.16,2.61,0,8.14-5.82,13.79-14.06,13.79s-14.45-6.08-14.45-13.83,6.34-13.83,14.41-13.83c6.22,0,11.37,2.88,13.15,7.94l-7.72,1.94c-1.23-2.33-3.17-3.04-5.43-3.04-3.92,0-6.73,3.04-6.73,6.99s2.85,6.99,6.85,6.99c2.81,0,4.83-1.22,5.86-3.32h-6.81v-6.24h14.77Z"/>
    <path class="cls-24" d="M216.65,23.39c0,7.7-4.83,12.56-12.08,12.56s-12.43-4.86-12.43-12.56v-14.5h7.64v14.5c0,3.6,1.9,5.69,4.79,5.69,2.65,0,4.44-2.09,4.44-5.69v-14.5h7.64v14.5Z"/>
    <path class="cls-24" d="M240.73,35.36h-21.11V8.89h20.95v6.4h-13.35v3.91h12.28v5.81h-12.28v3.95h13.5v6.4Z"/>
    <path class="cls-24" d="M265.75,16l-7.45,1.5c-.51-2.53-2.46-3.32-4-3.32-1.66,0-2.81.83-2.81,2.13,0,.75.28,1.42,1.54,1.7l5.39,1.26c4.87,1.22,7.56,3.59,7.56,7.86,0,6.2-5.78,8.81-11.29,8.81-6.46,0-11.37-3.12-12.12-8.18l7.76-1.46c.63,2.49,2.26,3.52,4.51,3.52,1.82,0,3.13-.75,3.13-2.13,0-.79-.36-1.42-1.82-1.78l-5.51-1.3c-4.43-1.03-7.29-3.28-7.29-7.66,0-5.57,4.71-8.65,10.93-8.65s10.49,2.77,11.44,7.7Z"/>
  </g>
  <g>
    <g>
      <path class="cls-7" d="M60.45.69l-30.01,33.99L.53.86C.96.39,1.6.09,2.32.09h56.5c.63,0,1.21.23,1.62.61Z"/>
      <path class="cls-1" d="M61.15,2.23v61.52c0,1.47-.62,2.81-1.64,3.81l-29.07-32.87L60.45.69c.43.39.7.93.7,1.53Z"/>
      <path class="cls-1" d="M30.44,34.68L1.52,67.44c-.95-.99-1.52-2.28-1.52-3.69V2.23c0-.52.2-.99.53-1.36l29.91,33.82Z"/>
      <path class="cls-13" d="M30.44,34.68L1.52,67.44c1.11,1.15,2.73,1.88,4.54,1.88h17.91c.91.25,2.79.9,4.4,2.55,1.39,1.42,1.92,2.91,2.14,3.69.3-.84.99-2.43,2.58-3.92,1.41-1.32,2.91-1.99,3.84-2.32h18.16c1.74,0,3.32-.68,4.42-1.77l-29.07-32.87Z"/>
      <g>
        <g>
          <g>
            <path class="cls-1" d="M17.69,4.04l-.11.04h-.07s0,0,0-.02c.05,0,.11-.02.16-.02h0Z"/>
            <path class="cls-1" d="M20.29,4.73v.02h0l-.09-.09s.06.04.09.07Z"/>
          </g>
          <path class="cls-1" d="M20.29,4.73v.02h0l-.09-.09s.06.04.09.07Z"/>
          <g>
            <path class="cls-1" d="M17.29,10.65l-.02.02s0-.01,0-.02c0,0,.01,0,.02,0Z"/>
            <path class="cls-1" d="M17.29,10.65l-.02.02s0-.01,0-.02c0,0,.01,0,.02,0Z"/>
          </g>
          <g>
            <path class="cls-1" d="M16.24,4.51l-.03.02h0s.02-.02.02-.02Z"/>
            <path class="cls-1" d="M16.24,4.51l-.03.02h0s.02-.02.02-.02Z"/>
            <path class="cls-1" d="M17.69,4.04l-.11.04h-.07s0,0,0-.02c.05,0,.11-.02.16-.02h0Z"/>
          </g>
        </g>
        <path class="cls-1" d="M23.4,7.31c-.31.35-.88.44-.99.06-.08-.27-.46-.43-.67-.5l1.23-1.12-1.71-.16c.73-.48.55-1.69.52-1.86.06.45-.26.9-.64.72-.27-.13-.66.03-.86.13l.04-1.58-1.33,1.03c.16-.82-.83-1.55-1.01-1.67.37.29.47.81.08.93-.28.09-.43.43-.51.64l-1.16-1.16-.18,1.62c-.49-.69-1.73-.54-1.95-.51.47-.04.93.26.75.61-.14.26.02.63.13.81l-1.66-.05,1.08,1.27c-.89-.16-1.69.84-1.77.96.3-.36.87-.46.99-.08.09.27.47.42.68.49l-1.21,1.15,1.71.12c-.78.54-.47,1.89-.47,1.89-.08-.46.23-.93.61-.76.27.12.66-.04.86-.14v1.58s1.31-1.06,1.31-1.06c0,0,0-.01,0-.02,0,0,.01,0,.02,0l-.02.02c-.14.82.87,1.53,1.04,1.65-.38-.28-.49-.8-.1-.93.22-.07.36-.31.44-.51l1.02,1.07.22-1.62c.5.73,1.84.57,1.96.55-.48.04-.96-.27-.76-.62.14-.25,0-.63-.11-.82l1.66.08-1.05-1.29c.89.18,1.7-.81,1.79-.92Z"/>
      </g>
      <g>
        <g>
          <g>
            <path class="cls-26" d="M39.51,31.16l.09.05c.11-.8.91-2.24.91-2.24-.01.61-.52,1.79-.77,2.32l.09-.03c2.13-1.18,1.24-3.88,1.24-3.88-2.46,1.67-1.55,3.78-1.55,3.78Z"/>
            <path class="cls-26" d="M38.93,27.22c-1.31,1.98.17,3.54.17,3.54-.02-.37.01-.71.07-1.02-.21-.56-.23-1.48-.23-1.48.19.34.3.69.36.98.2-.66.49-1.07.49-1.07-.1-.5-.85-.95-.85-.95Z"/>
            <path class="cls-26" d="M41.45,28.98c.03.26-.06.63-.2,1,.31-.23.7-.5.82-.49,0,0-.33.54-.91.74-.22.55-.79,1.09-.79,1.09,2.65-1.2,2.57-2.58,2.57-2.58-.52-.31-1.5.25-1.5.25Z"/>
          </g>
          <path class="cls-25" d="M40.27,27.22c.14.14.14.36-.01.5s-.38.13-.53,0c-.14-.14-.14-.36.01-.5.15-.14.38-.13.53,0Z"/>
          <path class="cls-10" d="M42.02,28c.14.14.14.36-.01.5-.15.14-.38.13-.53,0-.14-.14-.14-.36.01-.5.15-.14.38-.13.53,0Z"/>
        </g>
        <g>
          <g>
            <path class="cls-26" d="M38.04,36.13l.1.03c-.12-.8.24-2.38.24-2.38.16.59,0,1.85-.09,2.42l.08-.05c1.73-1.67.1-4.05.1-4.05-1.9,2.23-.43,4.03-.43,4.03Z"/>
            <path class="cls-26" d="M36.37,32.49c-.7,2.24,1.16,3.36,1.16,3.36-.12-.35-.19-.68-.22-1-.36-.49-.64-1.37-.64-1.37.28.28.48.58.62.85,0-.69.17-1.15.17-1.15-.23-.46-1.09-.7-1.09-.7Z"/>
            <path class="cls-26" d="M39.45,33.52c.1.24.12.62.09,1.01.23-.3.53-.65.65-.68,0,0-.16.61-.67.95-.06.59-.45,1.24-.45,1.24,2.22-1.82,1.75-3.14,1.75-3.14-.59-.16-1.37.62-1.37.62Z"/>
          </g>
          <path class="cls-15" d="M37.67,32.15c.18.1.24.31.13.48-.1.17-.33.23-.51.13-.18-.1-.24-.31-.13-.48.1-.17.33-.23.51-.13Z"/>
          <path class="cls-14" d="M39.72,32.43c.18.1.24.31.13.48-.1.17-.33.23-.51.13-.18-.1-.24-.31-.13-.48.1-.17.33-.23.51-.13Z"/>
        </g>
        <g>
          <g>
            <path class="cls-26" d="M41.03,41.42l.1-.02c-.5-.65-.97-2.2-.97-2.2.43.45.92,1.63,1.13,2.17l.04-.08c.7-2.24-1.92-3.6-1.92-3.6-.58,2.81,1.62,3.73,1.62,3.73Z"/>
            <path class="cls-26" d="M37.74,38.96c.49,2.28,2.69,2.44,2.69,2.44-.28-.25-.51-.52-.69-.78-.56-.27-1.25-.92-1.25-.92.39.12.72.3.97.47-.33-.61-.42-1.09-.42-1.09-.43-.3-1.31-.13-1.31-.13Z"/>
            <path class="cls-26" d="M40.84,38.52c.21.16.41.49.58.85.06-.37.15-.81.24-.89,0,0,.15.61-.13,1.13.24.54.22,1.29.22,1.29,1.06-2.59,0-3.54,0-3.54-.6.12-.91,1.16-.91,1.16Z"/>
          </g>
          <path class="cls-17" d="M38.55,37.97c.21,0,.37.17.36.37,0,.19-.18.35-.39.34-.21,0-.37-.17-.36-.37,0-.19.18-.35.39-.34Z"/>
          <path class="cls-22" d="M40.54,37.44c.21,0,.37.17.36.37,0,.19-.18.35-.39.34-.21,0-.36-.17-.36-.37,0-.19.18-.35.39-.34Z"/>
        </g>
        <g>
          <g>
            <path class="cls-26" d="M44.91,45.04l.09-.05c-.69-.46-1.67-1.78-1.67-1.78.56.29,1.43,1.26,1.81,1.7l.02-.09c-.51-2.78-2.88-2.7-2.88-2.7-.1,2.3,2.63,2.91,2.63,2.91Z"/>
            <path class="cls-26" d="M40.95,43.73c1.24,2,3.39,1.48,3.39,1.48-.35-.15-.66-.34-.92-.52-.63-.08-1.5-.48-1.5-.48.41,0,.78.06,1.08.15-.52-.47-.77-.9-.77-.9-.51-.15-1.29.28-1.29.28Z"/>
            <path class="cls-26" d="M43.74,42.37c.25.09.56.34.84.62-.07-.36-.14-.81-.08-.91,0,0,.35.53.27,1.11.41.44.65,1.16.65,1.16.12-2.77-1.23-3.48-1.23-3.48-.53.3-.45,1.51-.45,1.51Z"/>
          </g>
          <path class="cls-19" d="M41.36,42.4c.2-.06.4.05.46.24.06.19-.06.38-.25.44-.2.06-.4-.05-.46-.24-.06-.19.06-.38.25-.44Z"/>
          <path class="cls-18" d="M43.06,41.3c.2-.06.4.05.46.24.06.19-.06.38-.25.44-.2.06-.4-.05-.46-.24-.06-.19.06-.38.25-.44Z"/>
        </g>
        <g>
          <g>
            <path class="cls-26" d="M42.3,26.74l.06.08c.4-.72,1.66-1.81,1.66-1.81-.23.57-1.14,1.51-1.57,1.93h.09c2.42-.4,2.58-3.24,2.58-3.24-2.91.77-2.83,3.05-2.83,3.05Z"/>
            <path class="cls-26" d="M43.29,22.82c-1.94,1.44-1.11,3.24-1.11,3.24.12-.35.27-.66.44-.93,0-.6.32-1.47.32-1.47.06.39.03.74-.02,1.04.43-.56.85-.85.85-.85.09-.5-.48-1.03-.48-1.03Z"/>
            <path class="cls-26" d="M44.91,25.33c-.06.25-.31.43-.57.74.37-.11.86-.1.97-.06,0,0-.53.26-1.15.26-.41.45-.72.65-.72.65,2.85-.41,2.93-1.25,2.93-1.25-.38-.46-1.46-.35-1.46-.35Z"/>
          </g>
          <path class="cls-20" d="M44.6,23.26c.08.18,0,.39-.19.47-.19.08-.41,0-.49-.18-.08-.18,0-.39.19-.47.19-.08.41,0,.49.18Z"/>
          <path class="cls-11" d="M45.93,24.71c.08.18,0,.39-.19.47-.19.08-.41,0-.49-.18-.08-.18,0-.39.19-.47.19-.08.41,0,.49.18Z"/>
        </g>
      </g>
      <path class="cls-4" d="M49.14,30.17l.33.72-1.56.63s-.24-.4-.47-.66l1.71-.69Z"/>
      <path class="cls-4" d="M45.13,31.85l.33.77-1.87.71c-.06.03-.13,0-.16-.06l-.24-.55c-.03-.06,0-.13.06-.15l1.87-.71Z"/>
      <path class="cls-23" d="M49.92,28.96l1.03,2.17s0,.06-.01.09l-.78.83s-.12.03-.14-.02l-1.15-2.61s0-.09.04-.11l.9-.39s.09,0,.11.04Z"/>
      <path class="cls-8" d="M54.76,37.83c.17.08.39.2.64.34,1.12-1.37,1.3-2.93,1.32-3.64-.19.14-.53.41-.58.65,0,0,.14.2.2.34-.05-.05-1.42-1.4-3.41.44,0,0,.39.27.49.38,0,0-1.02-.33-1.96.14-.5.25-1,.64-1.38,1.03-.36-.32-.86-.85-1.22-1.61-.54-1.15-.59-1.7-1.02-2.34-.09-.17-.2-.49-.14-.67.08-.23.23-.62.28-.85h0s.01-.07.01-.1c0-.25-.17-.44-.17-.44l-.32-.48c-.04-.06-.11-.09-.18-.06l-.35.13-.04-.1s-.04-.04-.06-.02l-.3.13s-.03.04-.02.06l.34.8s-.05,0-.08.01l-.36-.86s-.04-.03-.06-.03l-.3.13s-.03.04-.02.06l.35.82s-.05.02-.07.04l-.32-.76s-.04-.04-.06-.02l-.3.13s-.03.04-.02.06l.35.83s-.04.03-.06.05l-.3-.71s-.04-.04-.06-.02l-.3.13s-.03.04-.02.06l.35.83s.01.02.03.02c0,0,0,0-.01.01.03.17.1.5.37.81.12.14.24.23.35.3.02.08.05.16.11.25,0,0,.25.91.34,1.98.04.55.19,1.91.97,3.13.27.42.55.72.76.93,0,0,0,0,0,0,0,0,0,0,.01.01h0s.03.02.05.03c.59.27,3,.14,4.09-.39,1.09-.52,1.51-.94,1.74-1.03.12-.04.23.01.34.11.16-.14.31-.29.45-.44-.56-.33-.87-.62-.87-.62,0,0-.43.53-.95.83-.51.3-1.31.51-1.36.52.06-.03,1.26-.65,1.64-1,.39-.36.48-.55.48-.55,0,0-.4-.42-.36-.84,0,0,.3.71,1,1.06ZM47.44,31.86s-.04.06-.06.09c-.05.09-.37.22-.4.59-.02.31.04.58.07.66h0c-.06-.12-.29-.62-.12-.88.12-.19.23-.32.28-.37l.06-.03s.03-.04.02-.06l-.06-.14.21-.02c0,.06,0,.11,0,.16Z"/>
      <path class="cls-9" d="M58.88,36.17c.29.5,1.61,3.14-1.64,4.78-2.38,1.2-6.21,2.29-7.72,4.25,0,0,.7-1.72,2.39-2.54,1.69-.83,4.95-1.76,5.4-4.26,0,0-1.26,2.73-4.9,3.6,0,0-1.94.39-2.48,1.03.17-.2,1.14-1.32,2.61-1.74,1.63-.47,2.57-1.41,3.65-3.07.66-1.03,1.11-1.81,1.6-2.12-.04-.06-.08-.13-.11-.22-.56-1.63-.27-2.18.14-2.34-.04-.02-.08-.04-.11-.06-.45-.29-.77-1.35-1.24-2.47-.76-1.81-1.52-2.89-3.05-3.61-1.43-.68-2.19-1.99-2.28-2.15.4.72,2.28,1.43,2.28,1.43,3.43,1.44,4.19,4.33,4.19,4.33,0-2.53-3.05-3.97-4.57-5.06-1.47-1.05-1.88-2.78-1.9-2.88,1.15,2.16,4.82,3.74,6.85,5.41,2.86,2.35.76,5.06.76,5.06-.01,0-.03,0-.04.01,1.26.41.23,2.59.23,2.59,0,0-.02.02-.06.04Z"/>
      <g id="RjnN08.tif">
        <g>
          <g>
            <path class="cls-5" d="M19.24,37.58c-.08.06-.14.05-.21.04-.96-.11-1.84.13-2.67.54-.74.36-1.42.83-2.12,1.25-.43.26-.88.51-1.34.74-.06.03-.12.07-.2.05-.06-.07-.04-.16-.04-.23,0-3.53,0-7.06,0-10.59,0-.2.06-.32.24-.44.64-.44,1.26-.91,1.9-1.35.56-.39,1.15-.72,1.82-.91.83-.23,1.66-.19,2.48.03.12.03.17.1.16.21,0,.11,0,.22,0,.33,0,3.35,0,6.71,0,10.06,0,.09.01.19-.02.28Z"/>
            <path class="cls-5" d="M12.08,40.2c-.13.01-.21-.06-.3-.1-.8-.4-1.55-.88-2.31-1.35-.66-.41-1.34-.78-2.1-1-.51-.15-1.03-.18-1.57-.14-.09,0-.17.04-.26-.02-.05-.08-.03-.17-.03-.26,0-3.44,0-6.89,0-10.33,0-.27,0-.27.29-.35,1.12-.29,2.2-.18,3.23.34.6.3,1.13.69,1.67,1.07.4.29.8.59,1.21.87.15.1.21.21.21.39,0,3.55,0,7.09,0,10.64,0,.07,0,.15-.03.23Z"/>
          </g>
          <path class="cls-23" d="M3.86,30.22c.08.1.05.21.05.32,0,2.91,0,5.81,0,8.72,0,.11,0,.22,0,.33.01.26.14.36.42.29.29-.07.59-.13.89-.18.86-.14,1.72-.13,2.58-.03,1.48.17,2.85.64,4.2,1.19.06.02.12.04.17.1-.08.05-.17.04-.25.04-2.86,0-5.71,0-8.57,0-.36,0-.44-.07-.44-.4-.03-3.33-.06-6.65-.09-9.98,0-.36.08-.43.46-.43.17,0,.34,0,.5,0,.02,0,.04.02.07.02Z"/>
          <path class="cls-23" d="M12.59,40.96c.04-.08.11-.09.18-.12,1.31-.56,2.67-1,4.11-1.17,1.15-.14,2.3-.1,3.43.19.38.1.52,0,.52-.36,0-2.99,0-5.97,0-8.96,0-.1-.02-.21.05-.33.25-.03.52-.04.79,0,.17.02.23.15.23.29,0,.26,0,.53,0,.79-.02,2.05-.03,4.09-.05,6.14-.01,1.06-.02,2.12-.04,3.18,0,.32-.08.39-.43.39-2.85,0-5.7,0-8.55,0-.08,0-.16,0-.23-.03Z"/>
          <path class="cls-5" d="M9.5,39.46c-1.66-.41-3.32-.51-5.02-.15v-11.31c.15-.06.27-.13.43-.12.08.11.05.23.05.34,0,3.17,0,6.34,0,9.52,0,.47.09.54.58.44.82-.18,1.59-.01,2.33.3.55.23,1.05.54,1.54.85.04.02.08.04.09.14Z"/>
          <path class="cls-5" d="M19.84,27.89c.37.03.42.08.42.39,0,3.57,0,7.14,0,10.71,0,.09.02.19-.07.32-1.61-.35-3.24-.26-4.85.13-.03-.07,0-.09.03-.11.69-.43,1.39-.85,2.2-1.07.56-.15,1.11-.19,1.68-.06.02,0,.03,0,.05,0,.4.08.51,0,.51-.38,0-3.2,0-6.4,0-9.61,0-.1-.01-.2.03-.32Z"/>
        </g>
      </g>
      <path class="cls-6" d="M36.54,16.41l-11.63-.26c-.48-.01-.91.29-1.01.73-.37,1.52-.74,3.04-1.11,4.56-.15.63.37,1.23,1.07,1.23h13.53c.69,0,1.21-.58,1.07-1.2-.31-1.43-.63-2.86-.94-4.3-.09-.43-.5-.74-.97-.75Z"/>
      <path class="cls-6" d="M27.21,16.11c.35-.78.7-1.56,1.05-2.35l3.04.25,1-.21,2.26,1.12.21,1.35c-2.52-.05-5.04-.11-7.56-.16Z"/>
      <polygon class="cls-2" points="35.07 16.03 35.06 16.03 35.07 16.02 35.07 16.03"/>
      <line class="cls-3" x1="35.07" y1="16.03" x2="35.07" y2="16.02"/>
      <path class="cls-3" d="M35.46,17.41h-.01"/>
      <path class="cls-16" d="M30.52,75.75c.47-2.01.94-4.01,1.4-6.01,0,0,0-.92.97-1.54.54-.34.97-.31,2.6-.31s.97-.62,1.3-.92c.32-.31,9.41-.62,10.38-.62s-3.24-1.85-3.24-2.15,1.95.31,2.92-.31c.97-.62,2.92-.92,2.27-.92s-6.16-1.85-7.78-1.85-4.71-.31-6.49-.92c-2.04-.7-2.15-1.3-2.15-1.52,0-.3.27-.56.53-.74-1.33.01-2.65.02-3.98.03.43.58.85,1.09,1.27,1.54.78.73,1.7,1.48,2.8,2.22,0,0,0,0,0,0,.73.39,1.41.63,2.02.77,1.29.3,4,.58,3.97.85,0,.03-.03.05-.07.07-.65.31-10.54,1.69-11.19,2-.65.31,1.46,1.69-.16,1.69s-2.43-.46-3.08.15c-.65.62-1.62.31-3.57.62-2.35.37-3.12-.32-4.54.31-.75.33-1.27.8-1.59,1.13h8.89c.87.24,2.08.7,3.29,1.61.57.42,1.57,1.19,2.37,2.56.51.88.76,1.69.88,2.25Z"/>
      <path class="cls-16" d="M12.49,55.02c5.97.65,11.95,1.3,17.92,1.94l9.28.17c3.34-.21,6.68-.43,10.03-.64-6.43-7.27-12.86-14.54-19.28-21.81-5.98,6.78-11.97,13.55-17.95,20.33Z"/>
      <path class="cls-21" d="M51.12,58.07c-6.5-.03-13.01-.06-19.51-.09-.55-.61-1.09-1.23-1.64-1.84.24-.99.49-1.98.73-2.97.33-.61.67-1.23,1-1.84.13-.1.29-.16.45-.16h.38c.18-.02.35-.08.49-.2l.72-.64c.17-.15.39-.21.62-.18l7.08.97c.14.02.26.1.33.21l.1.16c.12.2.38.27.59.18l.11-.05c1.11.18,2.21.36,3.32.55"/>
      <path class="cls-12" d="M19.55,47.03c.38-.05.92-.1,1.55-.08.5.02.91.08,1.05.11,2.2.49,3.05,2.95,4.54,5.23.12.19.26.38.4.59h0c.21.3.45.61.71.93.58.71,1.07,1.2,1.25,1.37.52.53,1.33,1.38,2.55,2.79-2.13.5-3.85.71-4.82.7-.48,0-.96-.03-.96-.03-.62-.04-1.2-.11-1.73-.2-.46-.12-.85-.13-1.09-.12-.22.01-1.16.06-1.85.69-.18.17-.28.32-.31.35-.91.86-8.43.31-8.43.31-.57-.04-1.18-.06-1.84-.05-.85.02-1.63.08-2.32.18"/>
    </g>
    <path class="cls-13" d="M28.91,7.43s-.04-.66.97-.69,2,.4,3.07,2.34c0,0,1.43,1.3,2.03,3.29.6,1.99.76,4.75.76,4.75,0,0-.23.78-.1,2.75.13,1.97.61,5.34.59,5.66s-.03.79-.25-.53-.46-3-.46-3c0,0,.19,2.11,0,1.97,0,0,.04.66-.08.46-.13-.2-.88-5.08-.94-5.48s-.36-1.19-.44-2.71c0,0-.96-1.35-1.41-1.82-.45-.48-.93-.23-1.76-1.51-.83-1.28-.57-2.78-.55-3.17s-.44-.8-.44-.8c0,0-.47-.02-.6-.22,0,0-.14.26.11.66,0,0-1.26-.57-.5-1.95Z"/>
  </g>
</svg>