<?xml version="1.0" encoding="UTF-8"?>
<svg id="Capa_1" xmlns="http://www.w3.org/2000/svg" xmlns:xlink="http://www.w3.org/1999/xlink" viewBox="0 0 1366 404">
  <defs>
    <style>
      .cls-1 {
        fill: #caa060;
      }

      .cls-1, .cls-2, .cls-3, .cls-4, .cls-5, .cls-6, .cls-7, .cls-8 {
        stroke-miterlimit: 10;
      }

      .cls-1, .cls-2, .cls-4, .cls-5, .cls-6, .cls-7, .cls-8 {
        stroke: #000;
      }

      .cls-1, .cls-4 {
        stroke-width: .2px;
      }

      .cls-2 {
        stroke-width: .18px;
      }

      .cls-2, .cls-4 {
        fill: none;
      }

      .cls-9 {
        fill: url(#linear-gradient-2);
      }

      .cls-3 {
        fill: #e52529;
        stroke: #e52529;
        stroke-width: .52px;
      }

      .cls-10 {
        fill: url(#linear-gradient-10);
      }

      .cls-11 {
        fill: #5cbfe5;
      }

      .cls-12 {
        fill: #0e793d;
      }

      .cls-5, .cls-6, .cls-7 {
        stroke-width: .1px;
      }

      .cls-5, .cls-8 {
        fill: #fff;
      }

      .cls-13 {
        fill: url(#linear-gradient-4);
      }

      .cls-14 {
        fill: url(#linear-gradient-3);
      }

      .cls-15 {
        fill: url(#linear-gradient-5);
      }

      .cls-6 {
        fill: #966939;
      }

      .cls-7 {
        fill: #f5d9d5;
      }

      .cls-16 {
        fill: url(#linear-gradient-8);
      }

      .cls-17 {
        fill: url(#linear-gradient-7);
      }

      .cls-18 {
        fill: url(#linear-gradient-9);
      }

      .cls-19 {
        fill: #754128;
      }

      .cls-20 {
        fill: #009848;
      }

      .cls-21 {
        fill: #161c2e;
      }

      .cls-22 {
        fill: #fad800;
      }

      .cls-23 {
        fill: url(#linear-gradient-6);
      }

      .cls-24 {
        fill: #1d1d1b;
      }

      .cls-25 {
        fill: url(#linear-gradient);
      }

      .cls-26 {
        fill: #01a049;
      }

      .cls-8 {
        stroke-width: .2px;
      }
    </style>
    <linearGradient id="linear-gradient" x1="1724.02" y1="897.41" x2="1727.57" y2="897.41" gradientTransform="translate(-1387.25 -937.87) rotate(6.86)" gradientUnits="userSpaceOnUse">
      <stop offset="0" stop-color="#e52536"/>
      <stop offset=".42" stop-color="#e42528"/>
      <stop offset=".78" stop-color="#e42328"/>
      <stop offset="1" stop-color="#e42528"/>
    </linearGradient>
    <linearGradient id="linear-gradient-2" x1="1732.75" y1="900.11" x2="1736.29" y2="900.11" xlink:href="#linear-gradient"/>
    <linearGradient id="linear-gradient-3" x1="1714.93" y1="922.5" x2="1718.47" y2="922.5" xlink:href="#linear-gradient"/>
    <linearGradient id="linear-gradient-4" x1="1724.82" y1="922.67" x2="1728.37" y2="922.67" xlink:href="#linear-gradient"/>
    <linearGradient id="linear-gradient-5" x1="1723.28" y1="949.7" x2="1726.83" y2="949.7" xlink:href="#linear-gradient"/>
    <linearGradient id="linear-gradient-6" x1="1732.38" y1="946.06" x2="1735.92" y2="946.06" xlink:href="#linear-gradient"/>
    <linearGradient id="linear-gradient-7" x1="1739.65" y1="969.01" x2="1743.19" y2="969.01" xlink:href="#linear-gradient"/>
    <linearGradient id="linear-gradient-8" x1="1747.08" y1="962.79" x2="1750.63" y2="962.79" xlink:href="#linear-gradient"/>
    <linearGradient id="linear-gradient-9" x1="1741.86" y1="875.74" x2="1745.4" y2="875.74" xlink:href="#linear-gradient"/>
    <linearGradient id="linear-gradient-10" x1="1748.95" y1="881.84" x2="1752.49" y2="881.84" xlink:href="#linear-gradient"/>
  </defs>
  <g>
    <path class="cls-24" d="M478.71,301.76l-5.56-14.43h-33.35l-5.56,14.43h-20.93l33.11-79.23h19.99l33.11,79.23h-20.81ZM456.48,244.52l-10.05,26.02h20.22l-10.17-26.02Z"/>
    <path class="cls-24" d="M564.93,301.76h-58.54v-79.23h19.51v62.2h39.02v17.03Z"/>
    <path class="cls-24" d="M652.81,272.08c-3.67,19.87-19.63,31.46-39.97,31.46-23.53,0-42.1-18.09-42.1-41.39s18.57-41.39,42.1-41.39c19.51,0,36.07,11.59,39.85,30.39l-19.16,4.5c-2.48-11.47-10.53-17.03-20.7-17.03-12.54,0-22.59,10.05-22.59,23.53s10.05,23.65,22.59,23.65c10.05,0,18.09-5.68,20.81-17.5l19.16,3.78Z"/>
    <path class="cls-24" d="M719.28,301.76l-5.56-14.43h-33.35l-5.56,14.43h-20.93l33.11-79.23h19.99l33.11,79.23h-20.81ZM697.05,244.52l-10.05,26.02h20.22l-10.17-26.02Z"/>
    <path class="cls-24" d="M805.5,301.76h-58.54v-79.23h19.51v62.2h39.02v17.03Z"/>
    <path class="cls-24" d="M847.73,222.53c26.13,0,43.4,16.08,43.4,39.62s-17.26,39.61-43.4,39.61h-31.34v-79.23h31.34ZM847.02,284.85c14.78,0,24.48-8.99,24.48-22.71s-9.7-22.71-24.48-22.71h-11.12v45.41h11.12Z"/>
    <path class="cls-24" d="M902.15,301.76v-79.23h19.51v79.23h-19.51ZM903.68,214.84l8.4-17.98h22.47l-14.07,17.98h-16.79Z"/>
    <path class="cls-24" d="M993.91,301.76l-5.56-14.43h-33.35l-5.56,14.43h-20.93l33.11-79.23h19.99l33.11,79.23h-20.81ZM971.68,244.52l-10.05,26.02h20.22l-10.17-26.02Z"/>
  </g>
  <g>
    <path class="cls-24" d="M516.16,185.57l-6.98-19.25h-49.81l-7.17,19.25h-38.87l50.94-126.42h40l50.94,126.42h-39.06ZM484.46,98.02l-13.96,37.93h27.74l-13.77-37.93Z"/>
    <path class="cls-24" d="M666.91,185.57h-108.68v-23.4l60-72.45h-58.49v-30.57h105.1v28.11l-54.53,67.74h56.61v30.57Z"/>
    <path class="cls-24" d="M807.28,122.36c0,36.98-29.81,66.04-68.11,66.04s-68.11-29.06-68.11-66.04,29.81-66.04,68.11-66.04,68.11,29.25,68.11,66.04ZM770.68,122.36c0-18.87-13.21-33.4-31.51-33.4s-31.51,14.53-31.51,33.4,13.21,33.4,31.51,33.4,31.51-14.34,31.51-33.4Z"/>
    <path class="cls-24" d="M949.92,110.1c.38,5.09.76,8.68.76,12.45,0,38.87-27.74,65.85-66.98,65.85s-68.87-29.06-68.87-66.04,30.19-66.04,68.68-66.04c29.62,0,54.15,13.77,62.64,37.93l-36.79,9.25c-5.85-11.13-15.09-14.53-25.85-14.53-18.68,0-32.08,14.53-32.08,33.4s13.59,33.4,32.64,33.4c13.4,0,23.02-5.85,27.92-15.85h-32.45v-29.81h70.38Z"/>
    <path class="cls-24" d="M1078.4,128.4c0,36.79-23.02,60-57.55,60s-59.25-23.21-59.25-60V59.15h36.42v69.25c0,17.17,9.06,27.17,22.83,27.17,12.64,0,21.13-10,21.13-27.17V59.15h36.42v69.25Z"/>
    <path class="cls-24" d="M1193.12,185.57h-100.57V59.15h99.81v30.57h-63.59v18.68h58.49v27.74h-58.49v18.87h64.34v30.57Z"/>
    <path class="cls-24" d="M1312.36,93.11l-35.47,7.17c-2.45-12.08-11.7-15.85-19.06-15.85-7.92,0-13.4,3.96-13.4,10.19,0,3.58,1.32,6.79,7.36,8.11l25.66,6.04c23.21,5.85,36.04,17.17,36.04,37.55,0,29.62-27.55,42.08-53.78,42.08-30.75,0-54.15-14.91-57.74-39.06l36.98-6.98c3.02,11.89,10.75,16.79,21.51,16.79,8.68,0,14.91-3.58,14.91-10.19,0-3.77-1.7-6.79-8.68-8.49l-26.23-6.23c-21.13-4.91-34.72-15.66-34.72-36.61,0-26.61,22.45-41.32,52.08-41.32s50,13.21,54.53,36.79Z"/>
  </g>
  <g>
    <g>
      <path class="cls-3" d="M316.5,31.27l-142.96,162.32L31.04,32.08c2.03-2.26,5.11-3.71,8.55-3.71h269.18c3,0,5.75,1.11,7.74,2.9Z"/>
      <path class="cls-22" d="M319.84,38.58v293.8c0,7.04-2.96,13.42-7.8,18.19l-138.5-156.98L316.5,31.27c2.06,1.86,3.34,4.44,3.34,7.31Z"/>
      <path class="cls-22" d="M173.54,193.59L35.76,350.01c-4.52-4.71-7.25-10.87-7.25-17.63V38.58c0-2.47.96-4.73,2.53-6.5l142.5,161.51Z"/>
      <path class="cls-20" d="M173.54,193.59L35.76,350.01c5.29,5.52,13.01,8.99,21.63,8.99h85.32c4.35,1.19,13.29,4.29,20.98,12.19,6.6,6.78,9.16,13.91,10.19,17.64,1.41-4.03,4.72-11.61,12.3-18.74,6.72-6.31,13.85-9.51,18.28-11.09h86.5c8.31,0,15.81-3.25,21.08-8.44l-138.5-156.98Z"/>
      <g>
        <g>
          <g>
            <path class="cls-22" d="M112.8,47.25l-.51.18h-.32s0-.04.03-.12c.26-.04.51-.08.76-.1l.03.04Z"/>
            <path class="cls-22" d="M125.16,50.54v.12h0l-.42-.43c.15.1.29.2.43.31Z"/>
          </g>
          <path class="cls-22" d="M125.16,50.54v.12h0l-.42-.43c.15.1.29.2.43.31Z"/>
          <g>
            <path class="cls-22" d="M110.88,78.81l-.1.08s0-.06.01-.1c.03.01.06.02.08.02Z"/>
            <path class="cls-22" d="M110.88,78.81l-.1.08s0-.06.01-.1c.03.01.06.02.08.02Z"/>
          </g>
          <g>
            <path class="cls-22" d="M105.86,49.48l-.12.11v-.04s.08-.05.12-.07Z"/>
            <path class="cls-22" d="M105.86,49.48l-.12.11v-.04s.08-.05.12-.07Z"/>
            <path class="cls-22" d="M112.8,47.25l-.51.18h-.32s0-.04.03-.12c.26-.04.51-.08.76-.1l.03.04Z"/>
          </g>
        </g>
        <path class="cls-22" d="M140.01,62.85c-1.48,1.68-4.18,2.1-4.74.29-.4-1.29-2.18-2.06-3.2-2.4l5.88-5.37-8.14-.77c3.49-2.3,2.64-8.07,2.49-8.9.26,2.16-1.26,4.29-3.03,3.45-1.28-.61-3.14.13-4.09.6l.18-7.55-6.34,4.93c.77-3.92-3.98-7.4-4.8-7.97,1.76,1.37,2.25,3.87.38,4.45-1.31.41-2.06,2.04-2.41,3.03l-5.52-5.54-.86,7.73c-2.35-3.28-8.23-2.59-9.29-2.44,2.26-.2,4.45,1.25,3.55,2.91-.66,1.22.12,2.99.6,3.89l-7.93-.22,5.13,6.06c-4.24-.77-8.03,4-8.45,4.57,1.44-1.71,4.13-2.19,4.73-.39.43,1.28,2.23,2.01,3.25,2.34l-5.75,5.49,8.15.59c-3.7,2.57-2.26,9.05-2.26,9.05-.37-2.19,1.12-4.43,2.93-3.61,1.3.59,3.14-.2,4.07-.69v7.55s6.23-5.05,6.23-5.05c0-.03,0-.06.01-.1.03.01.06.02.08.02l-.1.08c-.68,3.93,4.13,7.31,4.98,7.86-1.79-1.33-2.34-3.82-.48-4.45,1.04-.35,1.71-1.48,2.1-2.43l4.87,5.11,1.04-7.72c2.38,3.49,8.77,2.71,9.34,2.63-2.3.21-4.55-1.31-3.6-2.97.69-1.21-.04-2.99-.51-3.9l7.93.39-4.98-6.17c4.23.86,8.12-3.84,8.55-4.39Z"/>
      </g>
      <g>
        <g>
          <g>
            <path class="cls-26" d="M216.73,176.75l.41.24c.54-3.82,4.32-10.69,4.32-10.69-.06,2.9-2.5,8.54-3.66,11.07l.43-.13c10.16-5.61,5.9-18.54,5.9-18.54-11.71,7.98-7.4,18.05-7.4,18.05Z"/>
            <path class="cls-26" d="M213.97,157.92c-6.22,9.47.79,16.9.79,16.9-.09-1.75.07-3.38.34-4.85-1.01-2.69-1.11-7.08-1.11-7.08.92,1.64,1.43,3.28,1.7,4.68.97-3.16,2.33-5.12,2.33-5.12-.45-2.39-4.05-4.53-4.05-4.53Z"/>
            <path class="cls-26" d="M225.98,166.35c.16,1.22-.3,3-.94,4.78,1.47-1.09,3.33-2.37,3.9-2.36,0,0-1.57,2.6-4.36,3.55-1.07,2.64-3.75,5.18-3.75,5.18,12.62-5.72,12.27-12.33,12.27-12.33-2.48-1.46-7.13,1.18-7.13,1.18Z"/>
          </g>
          <path class="cls-25" d="M220.37,157.94c.68.67.66,1.73-.05,2.39-.71.65-1.83.64-2.51-.03-.68-.67-.66-1.73.05-2.39.71-.65,1.83-.64,2.51.03Z"/>
          <path class="cls-9" d="M228.71,161.66c.68.67.66,1.73-.05,2.39-.71.65-1.83.64-2.51-.03-.68-.67-.66-1.73.05-2.39.71-.65,1.83-.64,2.51.03Z"/>
        </g>
        <g>
          <g>
            <path class="cls-26" d="M209.76,200.5l.47.13c-.56-3.81,1.15-11.38,1.15-11.38.76,2.81,0,8.85-.41,11.58l.37-.24c8.22-7.98.46-19.33.46-19.33-9.05,10.66-2.04,19.24-2.04,19.24Z"/>
            <path class="cls-26" d="M201.78,183.1c-3.33,10.69,5.53,16.04,5.53,16.04-.58-1.66-.89-3.27-1.04-4.75-1.73-2.33-3.07-6.53-3.07-6.53,1.35,1.35,2.3,2.79,2.96,4.07.05-3.28.8-5.51.8-5.51-1.11-2.18-5.19-3.32-5.19-3.32Z"/>
            <path class="cls-26" d="M216.46,188.04c.5,1.13.56,2.96.44,4.83,1.12-1.42,2.54-3.12,3.1-3.26,0,0-.78,2.9-3.2,4.52-.28,2.81-2.15,5.94-2.15,5.94,10.56-8.71,8.36-14.98,8.36-14.98-2.81-.77-6.55,2.95-6.55,2.95Z"/>
          </g>
          <path class="cls-14" d="M207.97,181.49c.84.47,1.13,1.5.63,2.31-.5.81-1.59,1.08-2.43.61-.84-.47-1.13-1.5-.63-2.31.5-.81,1.59-1.08,2.43-.61Z"/>
          <path class="cls-13" d="M217.77,182.83c.84.47,1.13,1.5.63,2.31-.5.81-1.59,1.08-2.43.61-.84-.47-1.13-1.5-.63-2.31.5-.81,1.59-1.08,2.43-.61Z"/>
        </g>
        <g>
          <g>
            <path class="cls-26" d="M223.99,225.73l.48-.1c-2.38-3.1-4.61-10.52-4.61-10.52,2.06,2.13,4.38,7.78,5.36,10.36l.21-.38c3.34-10.69-9.15-17.2-9.15-17.2-2.75,13.41,7.7,17.83,7.7,17.83Z"/>
            <path class="cls-26" d="M208.32,213.99c2.34,10.89,12.83,11.64,12.83,11.64-1.33-1.2-2.41-2.48-3.27-3.72-2.69-1.28-5.95-4.37-5.95-4.37,1.86.58,3.42,1.43,4.64,2.26-1.58-2.91-2.02-5.2-2.02-5.2-2.07-1.42-6.24-.6-6.24-.6Z"/>
            <path class="cls-26" d="M223.07,211.9c1,.77,1.96,2.36,2.78,4.05.29-1.75.71-3.88,1.13-4.25,0,0,.74,2.9-.6,5.41,1.14,2.6,1.03,6.18,1.03,6.18,5.06-12.37,0-16.91,0-16.91-2.87.58-4.34,5.52-4.34,5.52Z"/>
          </g>
          <path class="cls-15" d="M212.19,209.26c.98.03,1.74.82,1.7,1.75-.04.93-.87,1.66-1.85,1.62-.98-.03-1.74-.82-1.7-1.75.04-.93.87-1.66,1.85-1.62Z"/>
          <path class="cls-23" d="M221.66,206.74c.98.03,1.74.82,1.7,1.75-.04.93-.87,1.66-1.85,1.62-.98-.03-1.74-.82-1.7-1.75.04-.93.87-1.66,1.85-1.62Z"/>
        </g>
        <g>
          <g>
            <path class="cls-26" d="M242.46,243.05l.42-.24c-3.31-2.2-7.94-8.52-7.94-8.52,2.68,1.38,6.8,6.01,8.61,8.14l.08-.42c-2.42-13.29-13.72-12.88-13.72-12.88-.48,11,12.55,13.92,12.55,13.92Z"/>
            <path class="cls-26" d="M223.61,236.77c5.92,9.56,16.13,7.05,16.13,7.05-1.68-.73-3.13-1.6-4.37-2.51-2.98-.38-7.13-2.3-7.13-2.3,1.97-.03,3.73.3,5.17.71-2.49-2.26-3.68-4.3-3.68-4.3-2.44-.71-6.13,1.34-6.13,1.34Z"/>
            <path class="cls-26" d="M236.88,230.27c1.21.42,2.66,1.62,4.02,2.97-.32-1.74-.64-3.88-.37-4.36,0,0,1.69,2.51,1.26,5.29,1.96,2.11,3.08,5.52,3.08,5.52.59-13.23-5.85-16.63-5.85-16.63-2.53,1.42-2.14,7.21-2.14,7.21Z"/>
          </g>
          <path class="cls-17" d="M225.56,230.45c.94-.27,1.93.24,2.2,1.13.28.89-.26,1.83-1.21,2.1-.94.27-1.93-.24-2.2-1.13-.28-.89.26-1.83,1.21-2.1Z"/>
          <path class="cls-16" d="M233.68,225.17c.94-.27,1.93.24,2.2,1.13.28.89-.26,1.83-1.21,2.1-.94.27-1.93-.24-2.2-1.13-.28-.89.26-1.83,1.21-2.1Z"/>
        </g>
        <g>
          <g>
            <path class="cls-26" d="M230.06,155.65l.3.37c1.89-3.41,7.93-8.64,7.93-8.64-1.11,2.71-5.45,7.22-7.46,9.22h.45c11.55-1.93,12.27-15.5,12.27-15.5-13.86,3.66-13.49,14.55-13.49,14.55Z"/>
            <path class="cls-26" d="M234.78,136.92c-9.27,6.87-5.27,15.49-5.27,15.49.56-1.68,1.29-3.16,2.09-4.45.04-2.86,1.54-7.03,1.54-7.03.26,1.85.14,3.56-.11,4.97,2.06-2.65,4.04-4.05,4.04-4.05.45-2.4-2.28-4.93-2.28-4.93Z"/>
            <path class="cls-26" d="M242.49,148.91c-.3,1.2-1.48,2.06-2.73,3.52,1.78-.54,4.08-.47,4.62-.27,0,0-2.53,1.26-5.48,1.24-1.96,2.14-3.41,3.13-3.41,3.13,13.6-1.95,13.96-5.96,13.96-5.96-1.79-2.19-6.97-1.66-6.97-1.66Z"/>
          </g>
          <path class="cls-18" d="M241.01,139.04c.39.85-.02,1.85-.91,2.23-.9.38-1.95,0-2.34-.85-.39-.85.02-1.85.91-2.23.9-.38,1.95,0,2.34.85Z"/>
          <path class="cls-10" d="M247.32,145.95c.39.85-.02,1.85-.91,2.23-.9.38-1.94,0-2.34-.85-.39-.85.02-1.85.91-2.23.9-.38,1.95,0,2.34.85Z"/>
        </g>
      </g>
      <path class="cls-6" d="M262.64,172.01l1.57,3.45-7.44,2.99s-1.16-1.91-2.25-3.15l8.12-3.28Z"/>
      <path class="cls-6" d="M243.52,180.04l1.59,3.67-8.9,3.41c-.3.12-.64-.01-.77-.3l-1.15-2.65c-.12-.28.02-.6.31-.72l8.91-3.41Z"/>
      <path class="cls-21" d="M266.36,166.24l4.88,10.35c.07.14.04.3-.07.42l-3.7,3.95c-.2.21-.57.16-.68-.11l-5.47-12.45c-.08-.19,0-.42.21-.5l4.28-1.85c.21-.09.45,0,.54.19Z"/>
      <path class="cls-7" d="M289.39,208.59c.8.4,1.86.97,3.03,1.63,5.35-6.56,6.21-13.98,6.29-17.39-.92.67-2.52,1.96-2.76,3.1,0,0,.67.97.94,1.6-.24-.25-6.74-6.68-16.26,2.09,0,0,1.84,1.27,2.33,1.82,0,0-4.84-1.59-9.34.65-2.38,1.18-4.74,3.04-6.56,4.91-1.69-1.53-4.08-4.05-5.8-7.69-2.59-5.47-2.79-8.1-4.86-11.17-.42-.8-.97-2.35-.66-3.19.4-1.09,1.12-2.96,1.32-4.07h0c.03-.19.05-.36.05-.49.02-1.19-.82-2.1-.82-2.1l-1.52-2.31c-.18-.3-.53-.42-.85-.31l-1.69.63-.2-.48c-.05-.11-.18-.17-.28-.12l-1.44.63c-.1.04-.15.18-.11.29l1.61,3.81c-.11.02-.24.04-.36.06l-1.72-4.09c-.05-.11-.17-.17-.28-.12l-1.44.64c-.11.04-.16.18-.11.29l1.65,3.92c-.11.06-.24.12-.35.18l-1.53-3.63c-.05-.11-.18-.17-.28-.12l-1.44.63c-.1.04-.15.18-.11.29l1.66,3.94c-.08.07-.18.15-.27.22l-1.42-3.37c-.05-.11-.18-.17-.28-.12l-1.45.64c-.11.05-.16.18-.11.3l1.66,3.94c.02.06.07.09.12.12-.02.02-.04.04-.05.06.12.79.48,2.39,1.78,3.88.57.65,1.16,1.1,1.67,1.43.09.37.26.76.53,1.2,0,0,1.21,4.33,1.62,9.43.21,2.64.91,9.14,4.62,14.95,1.27,1.99,2.62,3.46,3.61,4.42,0,.01.01.02.02.02.02.02.04.04.07.07v-.02c.08.07.16.13.25.17,2.83,1.3,14.32.65,19.49-1.84,5.18-2.49,7.18-4.5,8.29-4.93.55-.21,1.11.05,1.61.52.78-.68,1.5-1.38,2.16-2.1-2.67-1.57-4.15-2.97-4.15-2.97,0,0-2.04,2.52-4.54,3.98-2.42,1.42-6.22,2.43-6.46,2.5.31-.16,6.01-3.09,7.83-4.75,1.87-1.72,2.27-2.61,2.27-2.61,0,0-1.89-1.99-1.72-4.03,0,0,1.45,3.39,4.77,5.08ZM254.52,180.09c-.1.13-.19.27-.28.42-.24.42-1.74,1.06-1.89,2.84-.11,1.47.21,2.76.33,3.18h-.03c-.3-.59-1.4-2.95-.59-4.21.59-.9,1.11-1.52,1.35-1.77l.31-.13c.11-.05.16-.18.11-.29l-.29-.69.99-.1c-.03.28-.03.52-.02.76Z"/>
      <path class="cls-5" d="M309.02,200.68c1.38,2.4,7.69,15.01-7.8,22.85-11.32,5.74-29.58,10.94-36.78,20.28,0,0,3.31-8.21,11.39-12.15,8.07-3.94,23.6-8.42,25.74-20.32,0,0-6.02,13.02-23.34,17.22,0,0-9.24,1.88-11.83,4.9.8-.98,5.41-6.28,12.44-8.31,7.76-2.24,12.26-6.76,17.37-14.67,3.16-4.91,5.28-8.63,7.64-10.14-.2-.29-.37-.64-.52-1.07-2.68-7.77-1.3-10.39.64-11.16-.19-.09-.37-.19-.55-.3-2.13-1.39-3.67-6.46-5.9-11.77-3.63-8.62-7.26-13.8-14.52-17.26-6.81-3.23-10.42-9.5-10.84-10.27,1.91,3.42,10.84,6.82,10.84,6.82,16.33,6.9,19.96,20.7,19.96,20.7,0-12.08-14.52-18.98-21.78-24.16-7.02-5.02-8.95-13.26-9.06-13.78,5.46,10.34,22.96,17.87,32.65,25.85,13.61,11.22,3.63,24.16,3.63,24.16-.06.02-.12.04-.18.06,5.98,1.98,1.09,12.35,1.09,12.35,0,0-.1.07-.3.18Z"/>
      <g id="RjnN08.tif">
        <g>
          <g>
            <path class="cls-8" d="M120.17,207.43c-.37.27-.68.22-.98.19-4.57-.52-8.75.61-12.74,2.57-3.54,1.73-6.76,3.94-10.1,5.97-2.07,1.25-4.2,2.42-6.37,3.51-.29.15-.58.36-.96.25-.29-.35-.17-.75-.17-1.12,0-16.87,0-33.73-.03-50.6,0-.93.3-1.53,1.12-2.1,3.04-2.11,6-4.33,9.03-6.46,2.65-1.86,5.48-3.45,8.69-4.36,3.96-1.12,7.9-.91,11.83.15.58.16.79.48.78,1,0,.53,0,1.05,0,1.58,0,16.02,0,32.04,0,48.07,0,.45.06.91-.1,1.35Z"/>
            <path class="cls-8" d="M86.05,219.92c-.63.06-1.01-.28-1.43-.49-3.83-1.91-7.4-4.19-11-6.43-3.14-1.95-6.38-3.7-10.02-4.75-2.44-.71-4.93-.87-7.46-.67-.41.03-.83.18-1.23-.1-.26-.38-.15-.81-.15-1.22,0-16.44,0-32.89,0-49.33,0-1.28,0-1.3,1.37-1.65,5.36-1.37,10.48-.88,15.37,1.61,2.85,1.45,5.4,3.28,7.95,5.13,1.91,1.39,3.82,2.8,5.76,4.15.7.49,1.02,1.01,1.02,1.85-.03,16.94-.02,33.87-.03,50.81,0,.35.05.7-.14,1.09Z"/>
          </g>
          <path class="cls-21" d="M46.9,172.24c.39.47.24,1.02.24,1.53,0,13.88,0,27.76,0,41.64,0,.53,0,1.05.02,1.58.06,1.26.67,1.71,2.02,1.38,1.4-.34,2.81-.64,4.24-.87,4.09-.66,8.2-.64,12.3-.17,7.03.82,13.6,3.06,20.03,5.69.26.11.58.18.8.47-.37.25-.79.19-1.18.19-13.61,0-27.22.01-40.83.01-1.7,0-2.08-.35-2.1-1.92-.15-15.88-.3-31.76-.45-47.65-.02-1.7.36-2.05,2.19-2.05.8,0,1.6.02,2.4.04.11,0,.21.07.32.11Z"/>
          <path class="cls-21" d="M88.47,223.54c.19-.36.55-.44.84-.56,6.26-2.66,12.7-4.77,19.57-5.6,5.5-.66,10.96-.48,16.33.9,1.83.47,2.48.04,2.48-1.74,0-14.27,0-28.53.01-42.8,0-.48-.11-.99.25-1.57,1.19-.16,2.48-.17,3.75,0,.81.11,1.09.71,1.09,1.41,0,1.26,0,2.53-.02,3.79-.08,9.77-.17,19.54-.26,29.31-.05,5.06-.12,10.12-.18,15.18-.02,1.53-.37,1.86-2.03,1.86-13.57,0-27.15-.01-40.72-.02-.36,0-.74.05-1.1-.15Z"/>
          <path class="cls-8" d="M73.78,216.39c-7.93-1.98-15.83-2.44-23.91-.7v-54.03c.69-.27,1.28-.61,2.03-.56.37.52.22,1.1.22,1.64,0,15.15,0,30.3,0,45.45,0,2.23.43,2.59,2.76,2.08,3.91-.85,7.56-.05,11.11,1.43,2.61,1.09,4.99,2.56,7.36,4.04.17.11.4.21.43.65Z"/>
          <path class="cls-8" d="M123.05,161.12c1.78.16,2.01.38,2.01,1.85,0,17.05,0,34.1,0,51.15,0,.45.12.92-.34,1.51-7.69-1.65-15.45-1.22-23.12.6-.14-.33.02-.45.16-.54,3.29-2.06,6.61-4.04,10.47-5.1,2.65-.73,5.31-.91,8.01-.3.07.02.15.03.22.04,1.91.38,2.43-.01,2.43-1.82,0-15.29,0-30.58,0-45.87,0-.48-.07-.98.14-1.51Z"/>
        </g>
      </g>
      <path class="cls-1" d="M202.6,106.33l-55.43-1.26c-2.3-.05-4.33,1.4-4.83,3.48-1.77,7.26-3.53,14.51-5.3,21.77-.73,3,1.75,5.85,5.08,5.85h64.46c3.29,0,5.76-2.78,5.11-5.75-1.49-6.84-2.99-13.68-4.48-20.51-.45-2.04-2.36-3.52-4.62-3.57Z"/>
      <path class="cls-1" d="M158.13,104.87c1.67-3.74,3.34-7.47,5.01-11.21l14.5,1.17,4.75-1.01,10.75,5.36,1.01,6.47c-12-.26-24.01-.52-36.01-.78Z"/>
      <path class="cls-2" d="M195.61,104.5s-.02-.01-.04-.02c.01,0,.01-.01.02-.01v.03Z"/>
      <line class="cls-4" x1="195.61" y1="104.5" x2="195.59" y2="104.47"/>
      <path class="cls-4" d="M197.48,111.08l-.05-.05"/>
      <path class="cls-11" d="M173.91,389.68c2.23-9.58,4.46-19.15,6.68-28.72,0,0,0-4.41,4.64-7.35,2.57-1.63,4.64-1.47,12.36-1.47s4.64-2.94,6.18-4.41c1.55-1.47,44.82-2.94,49.45-2.94s-15.45-8.82-15.45-10.29,9.27,1.47,13.91-1.47c4.64-2.94,13.91-4.41,10.82-4.41s-29.36-8.82-37.09-8.82-22.44-1.48-30.91-4.41c-9.71-3.36-10.26-6.2-10.25-7.24.02-1.45,1.29-2.66,2.52-3.52-6.32.05-12.63.1-18.95.15,2.03,2.78,4.06,5.21,6.05,7.35,3.71,3.49,8.11,7.07,13.34,10.6,0,0,0,0,0,0,3.46,1.87,6.69,3,9.6,3.67,6.16,1.43,19.06,2.75,18.89,4.06-.02.12-.13.24-.35.34-3.09,1.47-50.23,8.08-53.32,9.55-3.09,1.47,6.95,8.08-.77,8.08s-11.59-2.2-14.68.73c-3.09,2.94-7.73,1.47-17,2.94-11.19,1.77-14.84-1.53-21.64,1.47-3.58,1.58-6.07,3.81-7.58,5.39h42.33c4.13,1.15,9.89,3.35,15.69,7.7,2.7,2.03,7.49,5.69,11.3,12.25,2.43,4.19,3.6,8.07,4.21,10.73Z"/>
      <path class="cls-11" d="M88.02,290.68c28.46,3.09,56.92,6.19,85.39,9.28l44.24.81c15.92-1.02,31.84-2.03,47.76-3.05-30.62-34.71-61.25-69.42-91.87-104.13-28.51,32.36-57.01,64.73-85.52,97.09Z"/>
      <path class="cls-19" d="M272.07,305.27c-30.99-.15-61.97-.29-92.96-.44-2.61-2.94-5.21-5.87-7.82-8.81,1.16-4.73,2.33-9.45,3.49-14.18,1.59-2.93,3.18-5.86,4.77-8.8.61-.48,1.37-.76,2.16-.78l1.81-.06c.86-.03,1.68-.35,2.31-.91l3.44-3.05c.79-.7,1.87-1.02,2.94-.87l33.73,4.64c.67.09,1.25.47,1.59,1.02l.47.77c.57.94,1.79,1.31,2.83.85l.52-.23c5.27.87,10.55,1.74,15.82,2.61"/>
      <path class="cls-12" d="M121.67,252.56c1.83-.26,4.36-.5,7.38-.37,2.4.1,4.34.37,5,.52,10.5,2.33,14.53,14.11,21.64,24.98.59.9,1.23,1.84,1.92,2.8h0c1.01,1.43,2.14,2.91,3.4,4.45,2.78,3.38,5.1,5.71,5.95,6.56,2.49,2.51,6.33,6.58,12.15,13.34-10.17,2.41-18.37,3.4-22.95,3.36-2.27-.02-4.59-.17-4.59-.17-2.97-.19-5.73-.53-8.24-.95-2.2-.6-4.04-.63-5.18-.57-1.03.05-5.55.28-8.81,3.3-.87.81-1.32,1.55-1.46,1.68-4.33,4.12-40.18,1.47-40.18,1.47-2.69-.19-5.62-.29-8.76-.23-4.05.08-7.76.4-11.07.84"/>
    </g>
    <path class="cls-20" d="M166.25,63.45s-.2-3.14,4.61-3.28c4.81-.14,9.54,1.91,14.64,11.17,0,0,6.82,6.19,9.66,15.69,2.85,9.5,3.63,22.69,3.63,22.69,0,0-1.1,3.72-.5,13.14.61,9.42,2.88,25.48,2.82,27.04-.06,1.56-.14,3.75-1.19-2.55-1.04-6.3-2.18-14.33-2.18-14.33,0,0,.9,10.06-.03,9.4,0,0,.2,3.14-.4,2.18-.6-.96-4.21-24.27-4.46-26.16-.25-1.89-1.71-5.7-2.08-12.92,0,0-4.56-6.43-6.72-8.7-2.16-2.27-4.44-1.1-8.38-7.19-3.94-6.09-2.7-13.25-2.63-15.13s-2.1-3.83-2.1-3.83c0,0-2.24-.08-2.84-1.04,0,0-.69,1.23.52,3.15,0,0-5.99-2.72-2.37-9.33Z"/>
  </g>
</svg>