<?xml version="1.0" encoding="UTF-8"?>
<svg id="Capa_1" xmlns="http://www.w3.org/2000/svg" viewBox="0 0 134.37 63.6">
  <defs>
    <style>
      .cls-1 {
        fill: #e93323;
      }

      .cls-2 {
        fill: #fff;
      }

      .cls-3 {
        fill: #0e2b34;
      }
    </style>
  </defs>
  <g>
    <g>
      <path class="cls-3" d="M15.62,27.04l4.27-3.27c.4,1.33,1.6,2.07,2.8,2.07,1.93,0,3.73-1.57,4.13-3.47l3.03-14.67h5.7l-3.27,15.67c-.93,4.6-4.77,7.63-9.33,7.63-3.17,0-6.13-1.73-7.33-3.97Z"/>
      <path class="cls-3" d="M57.76,13.37l-3.6,17.23h-5.63l.4-2c-1.57,1.5-3.57,2.4-5.8,2.4-3.93,0-6.57-2.93-6.57-7.03,0-5.7,4.13-11,9.67-11,2.4,0,4.3,1.13,5.37,3l.53-2.6h5.63ZM50.49,20.54c0-1.7-1.2-2.87-2.93-2.87-3.03,0-5.57,2.7-5.57,5.7,0,1.73,1.2,2.93,3.1,2.93,2.97,0,5.4-2.9,5.4-5.77Z"/>
      <path class="cls-1" d="M60.99,13.37h5.7l2,10.77,6.43-10.77h5.97l-10.97,17.23h-5.23l-3.9-17.23Z"/>
      <path class="cls-3" d="M84.36,13.37h5.63l-3.6,17.23h-5.63l3.6-17.23ZM85.23,8.54c0-1.8,1.6-3.23,3.27-3.23,1.53,0,2.67,1.23,2.67,2.73,0,1.7-1.53,3.2-3.17,3.2s-2.77-1.2-2.77-2.7Z"/>
      <path class="cls-3" d="M97.1,23.54v.07c0,1.87,1,2.83,2.8,2.83,1.6,0,3.23-.67,4.53-1.63l2.87,3.67c-1.83,1.6-4.77,2.53-7.4,2.53-4.77,0-7.77-2.97-7.77-7.33,0-5.93,4.77-10.7,10.63-10.7,3.87,0,6.6,1.93,6.6,4.7,0,3.83-3.13,6.03-8.47,5.87h-3.8ZM98.1,20.11h3.47c1.77,0,2.83-.57,2.83-1.5,0-.63-.77-1.1-1.83-1.1-1.9,0-3.5,1.07-4.47,2.6Z"/>
      <path class="cls-3" d="M125.83,12.97l-.6,4.7c-3.5,0-6.3,2.2-6.97,5.4v-.07l-1.6,7.6h-5.63l3.6-17.23h5.63l-.6,2.93c1.5-2.1,3.7-3.33,6.17-3.33Z"/>
    </g>
    <g>
      <path class="cls-3" d="M39.84,40.29l.83-.81c.56.65,1.51,1.09,2.34,1.09,1.25,0,2.09-.65,2.09-1.53,0-.48-.46-.76-1.68-1.08-1.6-.39-2.36-.85-2.36-1.89,0-1.6,1.33-2.77,3.25-2.77.98,0,2.07.47,2.72,1.17l-.8.83c-.53-.58-1.37-.96-2.05-.96-1.15,0-1.92.64-1.92,1.5,0,.47.47.75,1.7,1.05,1.66.4,2.35.92,2.35,1.95,0,1.64-1.43,2.77-3.39,2.77-1.18,0-2.42-.54-3.09-1.32Z"/>
      <path class="cls-3" d="M49.9,34.55l-.46,2.29h4.24l-.22,1.1h-4.27l-.49,2.44h4.7l-.23,1.1h-5.91l1.67-8.03h5.9l-.22,1.1h-4.72Z"/>
      <path class="cls-3" d="M59.54,38.58l1.75,2.9h-1.31l-1.7-2.79h-1.85l-.6,2.79h-1.18l1.67-8.03h3.33c1.49,0,2.51.91,2.51,2.22,0,1.39-1.13,2.56-2.64,2.91ZM61,35.71c0-.69-.64-1.17-1.58-1.17h-2.13l-.63,3.04h2.1c1.2,0,2.23-.87,2.23-1.87Z"/>
      <path class="cls-3" d="M67.3,38.58l1.75,2.9h-1.31l-1.7-2.79h-1.85l-.6,2.79h-1.18l1.67-8.03h3.33c1.49,0,2.51.91,2.51,2.22,0,1.39-1.13,2.56-2.64,2.91ZM68.76,35.71c0-.69-.64-1.17-1.58-1.17h-2.13l-.63,3.04h2.1c1.2,0,2.23-.87,2.23-1.87Z"/>
      <path class="cls-3" d="M76.23,39.81h-4.16l-1.06,1.67h-1.33l5.12-8.03h1.32-.01s1.78,8.03,1.78,8.03h-1.27l-.37-1.67ZM76.01,38.78l-.85-3.82-2.43,3.82h3.29Z"/>
      <path class="cls-3" d="M80.87,33.45h1.17l3.34,6.09,1.29-6.09h1.18l-1.67,8.03h-1.16l-3.34-6.09-1.3,6.09h-1.18l1.67-8.03Z"/>
      <path class="cls-3" d="M88.54,38.22c0-2.67,2.36-4.91,5.06-4.91,1.99,0,3.4,1.49,3.4,3.4,0,2.65-2.37,4.91-5.06,4.91-1.88,0-3.4-1.54-3.4-3.4ZM95.81,36.76c0-1.33-.97-2.36-2.36-2.36-2,0-3.72,1.74-3.72,3.75,0,1.3,1.08,2.39,2.37,2.39,2.01,0,3.71-1.85,3.71-3.78Z"/>
    </g>
    <path class="cls-1" d="M71.4,19.57c3.12-5.19,6.24-10.38,9.36-15.57h5.88c-2.6,4.31-5.21,8.62-7.81,12.92-2.47.88-4.95,1.76-7.42,2.65Z"/>
  </g>
  <rect class="cls-1" x="28.85" y="43.5" width="85.09" height="12.52"/>
  <g>
    <path class="cls-2" d="M47.6,52.59h-3.18l-.47,1.17h-2.25l3.18-8.03h2.25l3.18,8.03h-2.25l-.47-1.17ZM46.98,51.02l-.97-2.47-.97,2.47h1.94Z"/>
    <path class="cls-2" d="M56.97,51.97v1.79h-5.86v-8.03h1.99v6.24h3.87Z"/>
    <path class="cls-2" d="M57.72,49.73c0-2.26,1.98-4.15,4.31-4.15,1.25,0,2.4.54,3.19,1.38l-1.46,1.3c-.42-.53-1.05-.87-1.73-.87-1.23,0-2.27,1.08-2.27,2.34s1.04,2.35,2.27,2.35c.69,0,1.31-.34,1.74-.87l1.45,1.29c-.8.85-1.94,1.39-3.19,1.39-2.34,0-4.31-1.91-4.31-4.16Z"/>
    <path class="cls-2" d="M71.45,52.59h-3.18l-.47,1.17h-2.25l3.18-8.03h2.25l3.18,8.03h-2.25l-.47-1.17ZM70.83,51.02l-.97-2.47-.97,2.47h1.94Z"/>
    <path class="cls-2" d="M80.82,51.97v1.79h-5.86v-8.03h1.99v6.24h3.87Z"/>
    <path class="cls-2" d="M81.91,45.72h2.93c2.76,0,4.7,1.66,4.7,4.01s-1.94,4.02-4.7,4.02h-2.93v-8.03ZM85.15,51.94c1.37,0,2.35-.92,2.35-2.21s-.98-2.2-2.35-2.2h-1.24v4.41h1.24Z"/>
    <path class="cls-2" d="M92.76,47.51v1.25h3.93v1.79h-3.93v1.41h4.33v1.79h-6.33v-8.03h6.33v1.79h-4.33Z"/>
  </g>
</svg>